<svg viewBox="0 0 165 50" fill="none" xmlns="http://www.w3.org/2000/svg">
  <path d="M25 50C11.193 50 0 38.807 0 25S11.193 0 25 0a24.922 24.922 0 0 1 17.678 7.322L30.893 19.108A8.333 8.333 0 1 0 33.333 25H50c0 13.807-11.193 25-25 25ZM79.024 36.48c4.384 0 7.104-2.784 7.392-6.272h-4.192c-.288 1.856-1.536 2.784-3.296 2.784-2.656 0-3.904-2.08-3.904-5.184 0-3.168 1.344-5.184 3.968-5.184 1.6 0 2.72 1.088 3.008 2.528h4.256c-.576-3.552-3.2-6.016-7.456-6.016-4.992 0-8.192 3.776-8.192 8.672 0 4.896 3.232 8.672 8.416 8.672Zm17.066 0c5.088 0 8.576-3.776 8.576-8.672 0-4.896-3.488-8.672-8.576-8.672-5.088 0-8.576 3.776-8.576 8.672 0 4.896 3.488 8.672 8.576 8.672Zm0-3.328c-2.688 0-4.16-2.144-4.16-5.344s1.472-5.376 4.16-5.376c2.656 0 4.16 2.176 4.16 5.376s-1.504 5.344-4.16 5.344Zm14.791-13.568h-4.192V36h4.352v-8c0-3.456 2.048-4.96 4.896-4.672h.096V19.52c-.256-.096-.544-.128-1.024-.128-1.92 0-3.04.96-4.032 2.816h-.096v-2.624ZM127.775 36h4.192v-.16c-.384-.288-.576-1.024-.576-2.272v-8.352c0-3.84-1.984-6.048-6.912-6.048-4.8 0-6.944 2.528-7.072 5.408h3.872c.128-1.568 1.12-2.304 3.168-2.304 1.824 0 2.752.768 2.752 1.952 0 1.248-1.248 1.472-3.968 1.856-3.648.512-6.592 1.664-6.592 5.28 0 3.264 2.368 5.024 5.728 5.024 2.816 0 4-.96 4.832-2.208h.064c.096.736.256 1.504.512 1.824Zm-4.352-2.656c-1.536 0-2.56-.544-2.56-2.08s1.12-2.048 3.392-2.56c1.088-.256 2.272-.512 3.04-.96v2.464c0 1.6-1.376 3.136-3.872 3.136ZM134.222 36h4.352V13.12h-4.352V36Zm7.217 0h4.352V19.584h-4.352V36Zm0-18.976h4.352V13.12h-4.352v3.904Zm14.773 19.456c4.384 0 7.104-2.784 7.392-6.272h-4.192c-.288 1.856-1.536 2.784-3.296 2.784-2.656 0-3.904-2.08-3.904-5.184 0-3.168 1.344-5.184 3.968-5.184 1.6 0 2.72 1.088 3.008 2.528h4.256c-.576-3.552-3.2-6.016-7.456-6.016-4.992 0-8.192 3.776-8.192 8.672 0 4.896 3.232 8.672 8.416 8.672Z" fill="#fff"/>
</svg>