<svg viewBox="0 0 40 40" fill="none" xmlns="http://www.w3.org/2000/svg">
  <style>
    .logo {
      fill: #000000;
    }

    @media (prefers-color-scheme: dark) {
      .logo {
        fill: #ffffff;
      }
    }
  </style>
  <path
    d="m20.428 0 15.429 8.998v18.004L20.429 36 5 27.002V8.998L20.428 0ZM6.714 10.023v15.954l13.714 8 13.715-8V10.023l-13.715-8-13.714 8Z"
    class="logo" />
  <path
    d="M27.286 18.002 23 20.221v.351h4.286v3.428H13.572v-3.428h4.286v-.375l-4.286-2.197v-4.285l6.857 3.683 6.857-3.683"
    class="logo" />
  <rect x="15" y="26" width="25" height="14" rx="3" fill="#CEE7CE" />
  <path
    d="M22.41 37h-4.58v-7.09h1.29v5.87h3.29V37Zm2.228 0h-1.31v-7.09h1.31V37Zm6.929-7.09L29.237 37h-1.42l-2.35-7.09h1.37l1.72 5.41 1.71-5.41h1.3ZM37.45 37H32.4v-7.09h5.05v1.17h-3.76v1.65H37v1.16h-3.31v1.94h3.76V37Z"
    fill="#2E5C2E" />
</svg>